<?xml version="1.0" encoding="UTF-8"?>
<!DOCTYPE svg PUBLIC "-//W3C//DTD SVG 1.1//EN" "http://www.w3.org/Graphics/SVG/1.1/DTD/svg11.dtd">
<svg xmlns="http://www.w3.org/2000/svg" version="1.1" width="571px" height="437px" style="shape-rendering:geometricPrecision; text-rendering:geometricPrecision; image-rendering:optimizeQuality; fill-rule:evenodd; clip-rule:evenodd" xmlns:xlink="http://www.w3.org/1999/xlink">
<g><path style="opacity:1" fill="#3da264" d="M 447.5,102.5 C 447.738,104.404 448.738,105.738 450.5,106.5C 450.5,107.167 450.5,107.833 450.5,108.5C 447.393,106.895 444.726,104.728 442.5,102C 436.364,99.8218 430.031,98.9885 423.5,99.5C 424.263,98.7321 425.263,98.2321 426.5,98C 430.167,97.3333 433.833,97.3333 437.5,98C 440.706,99.7694 444.039,101.269 447.5,102.5 Z"/></g>
<g><path style="opacity:0.243" fill="#b0e1c0" d="M 447.5,102.5 C 449.262,103.262 450.262,104.596 450.5,106.5C 448.738,105.738 447.738,104.404 447.5,102.5 Z"/></g>
<g><path style="opacity:1" fill="#1dab53" d="M 423.5,99.5 C 430.031,98.9885 436.364,99.8218 442.5,102C 444.726,104.728 447.393,106.895 450.5,108.5C 451.083,112.337 451.75,116.17 452.5,120C 452.306,121.86 451.972,123.693 451.5,125.5C 447.852,130.481 443.852,135.147 439.5,139.5C 438.566,140.568 438.232,141.901 438.5,143.5C 436.821,143.285 435.821,143.952 435.5,145.5C 434.448,145.351 433.448,145.517 432.5,146C 430.41,147.588 428.743,149.422 427.5,151.5C 426.566,152.568 426.232,153.901 426.5,155.5C 425.209,155.263 424.209,155.596 423.5,156.5C 419.647,159.116 415.98,162.116 412.5,165.5C 411.691,167.071 411.357,168.738 411.5,170.5C 410.094,170.973 409.427,171.973 409.5,173.5C 409.5,174.167 409.167,174.5 408.5,174.5C 407.391,174.557 406.391,174.89 405.5,175.5C 403.519,176.686 401.519,178.019 399.5,179.5C 397.722,180.726 396.722,182.393 396.5,184.5C 395.5,185.833 394.5,187.167 393.5,188.5C 392.209,188.263 391.209,188.596 390.5,189.5C 389.5,189.5 388.5,189.5 387.5,189.5C 381.979,197.196 375.479,204.196 368,210.5C 367.517,211.448 367.351,212.448 367.5,213.5C 364.768,215.035 362.102,216.869 359.5,219C 357.859,220.129 356.859,221.629 356.5,223.5C 355.596,224.209 355.263,225.209 355.5,226.5C 352.5,226.167 351.167,227.5 351.5,230.5C 350.5,230.5 349.5,230.5 348.5,230.5C 348.5,231.5 348.5,232.5 348.5,233.5C 347.5,233.5 346.5,233.5 345.5,233.5C 344.911,237.086 342.911,239.42 339.5,240.5C 336.861,242.463 334.194,244.463 331.5,246.5C 330.571,247.689 330.238,249.022 330.5,250.5C 330.167,251.5 329.5,252.167 328.5,252.5C 323.114,254.957 318.781,258.623 315.5,263.5C 313.085,266.92 310.085,269.587 306.5,271.5C 306.5,272.5 306.5,273.5 306.5,274.5C 303.5,274.167 302.167,275.5 302.5,278.5C 301.127,278.343 299.793,278.51 298.5,279C 298.833,279.333 299.167,279.667 299.5,280C 296.834,282.145 294.834,284.645 293.5,287.5C 292.5,287.5 291.5,287.5 290.5,287.5C 290.5,288.5 290.5,289.5 290.5,290.5C 288.328,291.801 285.995,292.801 283.5,293.5C 283.057,296.624 281.39,298.957 278.5,300.5C 277.614,301.325 277.281,302.325 277.5,303.5C 276.5,303.5 275.5,303.5 274.5,303.5C 274.5,304.5 274.5,305.5 274.5,306.5C 273.5,306.5 272.5,306.5 271.5,306.5C 271.5,307.5 271.5,308.5 271.5,309.5C 270.167,309.5 268.833,309.5 267.5,309.5C 267.5,311.167 267.5,312.833 267.5,314.5C 264.5,314.167 263.167,315.5 263.5,318.5C 260.924,319.107 258.591,320.274 256.5,322C 255.62,323.356 255.286,324.856 255.5,326.5C 254.167,326.5 252.833,326.5 251.5,326.5C 251.5,327.5 251.5,328.5 251.5,329.5C 249.202,330.31 246.868,331.144 244.5,332C 245.337,333.011 245.67,334.178 245.5,335.5C 243.5,335.5 241.5,335.5 239.5,335.5C 234.295,335.866 229.295,335.033 224.5,333C 220.249,329.233 215.915,325.733 211.5,322.5C 209.35,317.338 206.35,312.671 202.5,308.5C 199.603,305.931 196.27,304.264 192.5,303.5C 191.833,303.5 191.5,303.167 191.5,302.5C 191.291,301.078 190.791,299.745 190,298.5C 187.614,297.237 185.781,295.403 184.5,293C 183.552,292.517 182.552,292.351 181.5,292.5C 180.37,290.685 179.704,288.685 179.5,286.5C 178.5,286.5 177.5,286.5 176.5,286.5C 176.67,285.178 176.337,284.011 175.5,283C 173.372,282.345 171.372,281.511 169.5,280.5C 167.5,276.5 164.5,273.5 160.5,271.5C 159.833,271.5 159.5,271.167 159.5,270.5C 156.232,265.56 152.565,260.893 148.5,256.5C 146.955,255.548 145.288,255.215 143.5,255.5C 143.5,255.167 143.5,254.833 143.5,254.5C 140.245,249.398 136.745,244.398 133,239.5C 130.631,238.732 128.465,237.565 126.5,236C 124.343,232.844 121.843,230.011 119,227.5C 115.392,216.898 117.559,207.564 125.5,199.5C 125.833,199.5 126.167,199.5 126.5,199.5C 130.665,197.771 134.999,197.271 139.5,198C 144.015,199.556 148.348,201.389 152.5,203.5C 152.694,206.33 153.361,208.996 154.5,211.5C 155.552,211.351 156.552,211.517 157.5,212C 161.061,215.073 164.728,217.906 168.5,220.5C 169.167,220.5 169.833,220.5 170.5,220.5C 170.5,221.167 170.5,221.833 170.5,222.5C 172.759,225.938 175.259,229.271 178,232.5C 178.49,233.793 178.657,235.127 178.5,236.5C 180.696,236.565 182.696,237.232 184.5,238.5C 186.56,244.225 190.56,247.891 196.5,249.5C 196.833,249.5 197.167,249.5 197.5,249.5C 197.5,250.833 197.5,252.167 197.5,253.5C 200.766,253.433 202.266,255.099 202,258.5C 206.608,262.348 211.442,265.681 216.5,268.5C 216.372,270.655 216.872,272.655 218,274.5C 223.517,276.844 228.017,280.511 231.5,285.5C 237.179,289.347 239.845,288.014 239.5,281.5C 240.473,281.013 241.473,280.513 242.5,280C 247.523,275.027 252.19,269.86 256.5,264.5C 261.5,261.5 265.5,257.5 268.5,252.5C 273.5,249.5 277.5,245.5 280.5,240.5C 286.833,236.167 292.167,230.833 296.5,224.5C 300.224,224.95 302.391,223.283 303,219.5C 309.494,216.179 313.994,211.179 316.5,204.5C 318.697,203.155 321.03,201.989 323.5,201C 327.662,195.341 331.996,189.841 336.5,184.5C 342.833,180.833 347.833,175.833 351.5,169.5C 354.354,167.491 357.354,165.657 360.5,164C 366.958,156.037 373.625,148.204 380.5,140.5C 390.246,132.258 399.579,123.425 408.5,114C 414.078,109.804 419.078,104.971 423.5,99.5 Z"/></g>
<g><path style="opacity:0.149" fill="#aee8bf" d="M 450.5,106.5 C 451.906,106.973 452.573,107.973 452.5,109.5C 451.833,109.167 451.167,108.833 450.5,108.5C 450.5,107.833 450.5,107.167 450.5,106.5 Z"/></g>
<g><path style="opacity:0.161" fill="#b0e3c5" d="M 452.5,109.5 C 454.077,112.356 455.077,115.522 455.5,119C 455.077,122.478 454.077,125.644 452.5,128.5C 453.779,122.174 453.779,115.841 452.5,109.5 Z"/></g>
<g><path style="opacity:0.851" fill="#48a56c" d="M 450.5,108.5 C 451.167,108.833 451.833,109.167 452.5,109.5C 453.779,115.841 453.779,122.174 452.5,128.5C 452.262,130.404 451.262,131.738 449.5,132.5C 446.167,135.167 443.167,138.167 440.5,141.5C 439.662,141.158 439.328,140.492 439.5,139.5C 443.852,135.147 447.852,130.481 451.5,125.5C 451.972,123.693 452.306,121.86 452.5,120C 451.75,116.17 451.083,112.337 450.5,108.5 Z"/></g>
<g><path style="opacity:0.345" fill="#aae7c3" d="M 447.5,102.5 C 444.039,101.269 440.706,99.7694 437.5,98C 433.833,97.3333 430.167,97.3333 426.5,98C 425.263,98.2321 424.263,98.7321 423.5,99.5C 421.405,100.412 419.405,101.579 417.5,103C 404.965,115.368 392.631,127.868 380.5,140.5C 373.833,146.833 367.167,153.167 360.5,159.5C 360.167,159.5 359.833,159.5 359.5,159.5C 379.327,138.84 399.66,118.673 420.5,99C 426.276,96.6059 432.276,95.9393 438.5,97C 442.181,97.8722 445.181,99.7055 447.5,102.5 Z"/></g>
<g><path style="opacity:1" fill="#3ba063" d="M 423.5,99.5 C 419.078,104.971 414.078,109.804 408.5,114C 399.579,123.425 390.246,132.258 380.5,140.5C 392.631,127.868 404.965,115.368 417.5,103C 419.405,101.579 421.405,100.412 423.5,99.5 Z"/></g>
<g><path style="opacity:0.055" fill="#aee5bf" d="M 449.5,132.5 C 447.234,136.436 444.234,139.769 440.5,142.5C 440.5,142.167 440.5,141.833 440.5,141.5C 443.167,138.167 446.167,135.167 449.5,132.5 Z"/></g>
<g><path style="opacity:0.831" fill="#72c191" d="M 439.5,139.5 C 439.328,140.492 439.662,141.158 440.5,141.5C 440.5,141.833 440.5,142.167 440.5,142.5C 439.5,144.167 438.167,145.5 436.5,146.5C 436.167,146.5 435.833,146.5 435.5,146.5C 435.5,146.167 435.5,145.833 435.5,145.5C 435.821,143.952 436.821,143.285 438.5,143.5C 438.232,141.901 438.566,140.568 439.5,139.5 Z"/></g>
<g><path style="opacity:1" fill="#37a061" d="M 435.5,145.5 C 435.5,145.833 435.5,146.167 435.5,146.5C 433.167,148.5 430.833,150.5 428.5,152.5C 428.5,151.833 428.167,151.5 427.5,151.5C 428.743,149.422 430.41,147.588 432.5,146C 433.448,145.517 434.448,145.351 435.5,145.5 Z"/></g>
<g><path style="opacity:0.067" fill="#ade5c5" d="M 435.5,146.5 C 435.833,146.5 436.167,146.5 436.5,146.5C 434.167,149.5 431.5,152.167 428.5,154.5C 428.5,153.833 428.5,153.167 428.5,152.5C 430.833,150.5 433.167,148.5 435.5,146.5 Z"/></g>
<g><path style="opacity:0.831" fill="#6dbb8a" d="M 427.5,151.5 C 428.167,151.5 428.5,151.833 428.5,152.5C 428.5,153.167 428.5,153.833 428.5,154.5C 427.5,156.167 426.167,157.5 424.5,158.5C 424.167,158.5 423.833,158.5 423.5,158.5C 423.5,157.833 423.5,157.167 423.5,156.5C 424.209,155.596 425.209,155.263 426.5,155.5C 426.232,153.901 426.566,152.568 427.5,151.5 Z"/></g>
<g><path style="opacity:1" fill="#42a466" d="M 423.5,156.5 C 423.5,157.167 423.5,157.833 423.5,158.5C 421.413,159.585 420.08,161.251 419.5,163.5C 416.5,164.5 414.5,166.5 413.5,169.5C 413.5,170.167 413.167,170.5 412.5,170.5C 412.167,170.5 411.833,170.5 411.5,170.5C 411.357,168.738 411.691,167.071 412.5,165.5C 415.98,162.116 419.647,159.116 423.5,156.5 Z"/></g>
<g><path style="opacity:0.051" fill="#b0e6c3" d="M 423.5,158.5 C 423.833,158.5 424.167,158.5 424.5,158.5C 423.167,160.5 421.5,162.167 419.5,163.5C 420.08,161.251 421.413,159.585 423.5,158.5 Z"/></g>
<g><path style="opacity:0.976" fill="#38a161" d="M 380.5,140.5 C 373.625,148.204 366.958,156.037 360.5,164C 357.354,165.657 354.354,167.491 351.5,169.5C 354.5,166.167 357.5,162.833 360.5,159.5C 367.167,153.167 373.833,146.833 380.5,140.5 Z"/></g>
<g><path style="opacity:0.039" fill="#b5ebcb" d="M 419.5,163.5 C 417.833,165.833 415.833,167.833 413.5,169.5C 414.5,166.5 416.5,164.5 419.5,163.5 Z"/></g>
<g><path style="opacity:0.035" fill="#b0f1cb" d="M 411.5,170.5 C 411.833,170.5 412.167,170.5 412.5,170.5C 411.833,171.833 410.833,172.833 409.5,173.5C 409.427,171.973 410.094,170.973 411.5,170.5 Z"/></g>
<g><path style="opacity:0.031" fill="#b0ebc9" d="M 408.5,174.5 C 407.167,176.5 405.5,178.167 403.5,179.5C 403.733,177.938 404.4,176.605 405.5,175.5C 406.391,174.89 407.391,174.557 408.5,174.5 Z"/></g>
<g><path style="opacity:0.984" fill="#3b9f62" d="M 351.5,169.5 C 347.833,175.833 342.833,180.833 336.5,184.5C 341.167,179.167 346.167,174.167 351.5,169.5 Z"/></g>
<g><path style="opacity:0.976" fill="#3fa165" d="M 405.5,175.5 C 404.4,176.605 403.733,177.938 403.5,179.5C 400.907,180.754 398.573,182.42 396.5,184.5C 396.722,182.393 397.722,180.726 399.5,179.5C 401.519,178.019 403.519,176.686 405.5,175.5 Z"/></g>
<g><path style="opacity:0.027" fill="#acecc6" d="M 403.5,179.5 C 400.5,183.167 397.167,186.5 393.5,189.5C 393.5,189.167 393.5,188.833 393.5,188.5C 394.5,187.167 395.5,185.833 396.5,184.5C 398.573,182.42 400.907,180.754 403.5,179.5 Z"/></g>
<g><path style="opacity:0.753" fill="#7bc394" d="M 393.5,188.5 C 393.5,188.833 393.5,189.167 393.5,189.5C 393.167,190.5 392.5,191.167 391.5,191.5C 391.167,191.5 390.833,191.5 390.5,191.5C 390.5,190.833 390.5,190.167 390.5,189.5C 391.209,188.596 392.209,188.263 393.5,188.5 Z"/></g>
<g><path style="opacity:0.988" fill="#3aa162" d="M 336.5,184.5 C 331.996,189.841 327.662,195.341 323.5,201C 321.03,201.989 318.697,203.155 316.5,204.5C 322.833,197.5 329.5,190.833 336.5,184.5 Z"/></g>
<g><path style="opacity:0.475" fill="#8dcea5" d="M 145.5,197.5 C 139.167,196.167 132.833,196.167 126.5,197.5C 129.526,195.981 132.859,195.315 136.5,195.5C 138.833,195.667 141.167,195.833 143.5,196C 144.416,196.278 145.082,196.778 145.5,197.5 Z"/></g>
<g><path style="opacity:0.039" fill="#b2ebc2" d="M 390.5,191.5 C 390.833,191.5 391.167,191.5 391.5,191.5C 389.167,194.5 386.5,197.167 383.5,199.5C 385.094,196.236 387.427,193.569 390.5,191.5 Z"/></g>
<g><path style="opacity:0.18" fill="#a2deb9" d="M 145.5,197.5 C 148.198,197.845 150.198,199.178 151.5,201.5C 149.147,200.66 147.147,199.326 145.5,197.5 Z"/></g>
<g><path style="opacity:0.973" fill="#3fa366" d="M 390.5,189.5 C 390.5,190.167 390.5,190.833 390.5,191.5C 387.427,193.569 385.094,196.236 383.5,199.5C 383.5,200.167 383.167,200.5 382.5,200.5C 377.224,204.437 372.224,208.771 367.5,213.5C 367.351,212.448 367.517,211.448 368,210.5C 375.479,204.196 381.979,197.196 387.5,189.5C 388.5,189.5 389.5,189.5 390.5,189.5 Z"/></g>
<g><path style="opacity:1" fill="#47a66b" d="M 145.5,197.5 C 147.147,199.326 149.147,200.66 151.5,201.5C 152.833,201.5 153.5,202.167 153.5,203.5C 153.167,203.5 152.833,203.5 152.5,203.5C 148.348,201.389 144.015,199.556 139.5,198C 134.999,197.271 130.665,197.771 126.5,199.5C 126.5,198.833 126.5,198.167 126.5,197.5C 132.833,196.167 139.167,196.167 145.5,197.5 Z"/></g>
<g><path style="opacity:0.349" fill="#91d3aa" d="M 126.5,197.5 C 126.5,198.167 126.5,198.833 126.5,199.5C 126.167,199.5 125.833,199.5 125.5,199.5C 122.569,201.091 119.902,203.091 117.5,205.5C 119.233,201.435 122.233,198.768 126.5,197.5 Z"/></g>
<g><path style="opacity:0.612" fill="#8ad2a7" d="M 153.5,203.5 C 159.5,208.833 165.167,214.5 170.5,220.5C 169.833,220.5 169.167,220.5 168.5,220.5C 163.106,215.11 158.106,209.444 153.5,203.5 Z"/></g>
<g><path style="opacity:0.118" fill="#a5deb5" d="M 117.5,205.5 C 117.573,207.027 116.906,208.027 115.5,208.5C 115.427,206.973 116.094,205.973 117.5,205.5 Z"/></g>
<g><path style="opacity:0.02" fill="#b3ecc0" d="M 382.5,200.5 C 374.833,208.833 366.833,216.833 358.5,224.5C 358.5,224.167 358.5,223.833 358.5,223.5C 361.5,220.167 364.5,216.833 367.5,213.5C 372.224,208.771 377.224,204.437 382.5,200.5 Z"/></g>
<g><path style="opacity:1" fill="#2ea05d" d="M 152.5,203.5 C 152.833,203.5 153.167,203.5 153.5,203.5C 158.106,209.444 163.106,215.11 168.5,220.5C 164.728,217.906 161.061,215.073 157.5,212C 156.552,211.517 155.552,211.351 154.5,211.5C 153.361,208.996 152.694,206.33 152.5,203.5 Z"/></g>
<g><path style="opacity:0.125" fill="#9ad9b1" d="M 115.5,209.5 C 114.167,214.833 114.167,220.167 115.5,225.5C 112.833,220.167 112.833,214.833 115.5,209.5 Z"/></g>
<g><path style="opacity:1" fill="#32a25d" d="M 316.5,204.5 C 313.994,211.179 309.494,216.179 303,219.5C 302.391,223.283 300.224,224.95 296.5,224.5C 302.833,217.5 309.5,210.833 316.5,204.5 Z"/></g>
<g><path style="opacity:0.969" fill="#3d9f63" d="M 367.5,213.5 C 364.5,216.833 361.5,220.167 358.5,223.5C 357.833,223.5 357.167,223.5 356.5,223.5C 356.859,221.629 357.859,220.129 359.5,219C 362.102,216.869 364.768,215.035 367.5,213.5 Z"/></g>
<g><path style="opacity:0.655" fill="#88cfa5" d="M 170.5,220.5 C 172.167,221.5 173.5,222.833 174.5,224.5C 172.938,224.267 171.605,223.6 170.5,222.5C 170.5,221.833 170.5,221.167 170.5,220.5 Z"/></g>
<g><path style="opacity:0.58" fill="#8bd0a6" d="M 174.5,224.5 C 177.833,227.167 180.833,230.167 183.5,233.5C 179.5,231.5 176.5,228.5 174.5,224.5 Z"/></g>
<g><path style="opacity:0.616" fill="#8bcea5" d="M 117.5,229.5 C 126.12,237.784 134.786,246.118 143.5,254.5C 143.5,254.833 143.5,255.167 143.5,255.5C 143.5,255.833 143.5,256.167 143.5,256.5C 134.133,248.134 125.466,239.134 117.5,229.5 Z"/></g>
<g><path style="opacity:0.686" fill="#86caa3" d="M 356.5,223.5 C 357.167,223.5 357.833,223.5 358.5,223.5C 358.5,223.833 358.5,224.167 358.5,224.5C 352.5,231.167 346.167,237.5 339.5,243.5C 339.5,242.5 339.5,241.5 339.5,240.5C 342.911,239.42 344.911,237.086 345.5,233.5C 346.5,233.5 347.5,233.5 348.5,233.5C 348.5,232.5 348.5,231.5 348.5,230.5C 349.5,230.5 350.5,230.5 351.5,230.5C 351.167,227.5 352.5,226.167 355.5,226.5C 355.263,225.209 355.596,224.209 356.5,223.5 Z"/></g>
<g><path style="opacity:0.976" fill="#3ba064" d="M 296.5,224.5 C 292.167,230.833 286.833,236.167 280.5,240.5C 285.5,234.833 290.833,229.5 296.5,224.5 Z"/></g>
<g><path style="opacity:1" fill="#33a15f" d="M 125.5,199.5 C 117.559,207.564 115.392,216.898 119,227.5C 121.843,230.011 124.343,232.844 126.5,236C 128.465,237.565 130.631,238.732 133,239.5C 136.745,244.398 140.245,249.398 143.5,254.5C 134.786,246.118 126.12,237.784 117.5,229.5C 116.326,228.486 115.66,227.153 115.5,225.5C 114.167,220.167 114.167,214.833 115.5,209.5C 115.5,209.167 115.5,208.833 115.5,208.5C 116.906,208.027 117.573,207.027 117.5,205.5C 119.902,203.091 122.569,201.091 125.5,199.5 Z"/></g>
<g><path style="opacity:0.58" fill="#88d0a2" d="M 183.5,233.5 C 186.167,235.5 188.5,237.833 190.5,240.5C 187.167,239.167 184.833,236.833 183.5,233.5 Z"/></g>
<g><path style="opacity:0.259" fill="#a3e2b8" d="M 359.5,159.5 C 359.833,159.5 360.167,159.5 360.5,159.5C 357.5,162.833 354.5,166.167 351.5,169.5C 346.167,174.167 341.167,179.167 336.5,184.5C 329.5,190.833 322.833,197.5 316.5,204.5C 309.5,210.833 302.833,217.5 296.5,224.5C 290.833,229.5 285.5,234.833 280.5,240.5C 276.167,244.167 272.167,248.167 268.5,252.5C 264.167,256.167 260.167,260.167 256.5,264.5C 253.767,267.239 250.767,269.573 247.5,271.5C 284.5,233.833 321.833,196.5 359.5,159.5 Z"/></g>
<g><path style="opacity:0.502" fill="#8bd0a6" d="M 190.5,240.5 C 192.5,241.833 194.167,243.5 195.5,245.5C 192.833,244.833 191.167,243.167 190.5,240.5 Z"/></g>
<g><path style="opacity:1" fill="#2ba45a" d="M 170.5,222.5 C 171.605,223.6 172.938,224.267 174.5,224.5C 176.5,228.5 179.5,231.5 183.5,233.5C 184.833,236.833 187.167,239.167 190.5,240.5C 191.167,243.167 192.833,244.833 195.5,245.5C 195.833,246.833 196.167,248.167 196.5,249.5C 190.56,247.891 186.56,244.225 184.5,238.5C 182.696,237.232 180.696,236.565 178.5,236.5C 178.657,235.127 178.49,233.793 178,232.5C 175.259,229.271 172.759,225.938 170.5,222.5 Z"/></g>
<g><path style="opacity:1" fill="#48a86b" d="M 339.5,240.5 C 339.5,241.5 339.5,242.5 339.5,243.5C 339.5,244.167 339.167,244.5 338.5,244.5C 336.5,244.5 335.5,245.5 335.5,247.5C 334.167,247.5 332.833,247.5 331.5,247.5C 331.5,248.5 331.5,249.5 331.5,250.5C 331.167,250.5 330.833,250.5 330.5,250.5C 330.238,249.022 330.571,247.689 331.5,246.5C 334.194,244.463 336.861,242.463 339.5,240.5 Z"/></g>
<g><path style="opacity:0.016" fill="#bff0da" d="M 338.5,244.5 C 337.833,245.833 336.833,246.833 335.5,247.5C 335.5,245.5 336.5,244.5 338.5,244.5 Z"/></g>
<g><path style="opacity:0.976" fill="#39a062" d="M 280.5,240.5 C 277.5,245.5 273.5,249.5 268.5,252.5C 272.167,248.167 276.167,244.167 280.5,240.5 Z"/></g>
<g><path style="opacity:0.486" fill="#7ec89b" d="M 195.5,245.5 C 198.5,247.833 201.167,250.5 203.5,253.5C 201.246,252.585 199.246,251.252 197.5,249.5C 197.167,249.5 196.833,249.5 196.5,249.5C 196.167,248.167 195.833,246.833 195.5,245.5 Z"/></g>
<g><path style="opacity:0.741" fill="#7fcca3" d="M 335.5,247.5 C 334.833,248.833 333.833,249.833 332.5,250.5C 332.167,250.5 331.833,250.5 331.5,250.5C 331.5,249.5 331.5,248.5 331.5,247.5C 332.833,247.5 334.167,247.5 335.5,247.5 Z"/></g>
<g><path style="opacity:0.02" fill="#b9f0c2" d="M 330.5,250.5 C 330.833,250.5 331.167,250.5 331.5,250.5C 331.833,250.5 332.167,250.5 332.5,250.5C 330.833,252.833 328.833,254.833 326.5,256.5C 326.733,254.938 327.4,253.605 328.5,252.5C 329.5,252.167 330.167,251.5 330.5,250.5 Z"/></g>
<g><path style="opacity:0.349" fill="#90d4a9" d="M 143.5,256.5 C 149.11,260.772 154.443,265.438 159.5,270.5C 159.5,271.167 159.833,271.5 160.5,271.5C 163.239,274.233 165.573,277.233 167.5,280.5C 159.167,272.833 151.167,264.833 143.5,256.5 Z"/></g>
<g><path style="opacity:0.498" fill="#80ca9f" d="M 203.5,253.5 C 208.167,257.5 212.5,261.833 216.5,266.5C 211.139,263.139 206.806,258.806 203.5,253.5 Z"/></g>
<g><path style="opacity:1" fill="#3a9e62" d="M 268.5,252.5 C 265.5,257.5 261.5,261.5 256.5,264.5C 260.167,260.167 264.167,256.167 268.5,252.5 Z"/></g>
<g><path style="opacity:1" fill="#359f5e" d="M 143.5,256.5 C 143.5,256.167 143.5,255.833 143.5,255.5C 145.288,255.215 146.955,255.548 148.5,256.5C 152.565,260.893 156.232,265.56 159.5,270.5C 154.443,265.438 149.11,260.772 143.5,256.5 Z"/></g>
<g><path style="opacity:1" fill="#2ca35a" d="M 197.5,249.5 C 199.246,251.252 201.246,252.585 203.5,253.5C 206.806,258.806 211.139,263.139 216.5,266.5C 216.5,267.167 216.5,267.833 216.5,268.5C 211.442,265.681 206.608,262.348 202,258.5C 202.266,255.099 200.766,253.433 197.5,253.5C 197.5,252.167 197.5,250.833 197.5,249.5 Z"/></g>
<g><path style="opacity:0.973" fill="#5bb178" d="M 328.5,252.5 C 327.4,253.605 326.733,254.938 326.5,256.5C 324.833,258.833 322.833,260.833 320.5,262.5C 318.708,262.366 317.042,262.699 315.5,263.5C 318.781,258.623 323.114,254.957 328.5,252.5 Z"/></g>
<g><path style="opacity:0.471" fill="#88d0a4" d="M 216.5,266.5 C 217.833,267.167 218.833,268.167 219.5,269.5C 218.391,269.443 217.391,269.11 216.5,268.5C 216.5,267.833 216.5,267.167 216.5,266.5 Z"/></g>
<g><path style="opacity:1" fill="#369f5f" d="M 160.5,271.5 C 164.5,273.5 167.5,276.5 169.5,280.5C 168.833,280.5 168.167,280.5 167.5,280.5C 165.573,277.233 163.239,274.233 160.5,271.5 Z"/></g>
<g><path style="opacity:0.427" fill="#81c99c" d="M 219.5,269.5 C 223.833,273.167 227.833,277.167 231.5,281.5C 226.473,278.473 222.473,274.473 219.5,269.5 Z"/></g>
<g><path style="opacity:0.196" fill="#b1dec1" d="M 247.5,272.5 C 246.5,274.167 245.167,275.5 243.5,276.5C 243.833,274.167 245.167,272.833 247.5,272.5 Z"/></g>
<g><path style="opacity:0.965" fill="#43a269" d="M 256.5,264.5 C 252.19,269.86 247.523,275.027 242.5,280C 241.473,280.513 240.473,281.013 239.5,281.5C 239.5,281.167 239.5,280.833 239.5,280.5C 240.5,278.833 241.833,277.5 243.5,276.5C 245.167,275.5 246.5,274.167 247.5,272.5C 247.5,272.167 247.5,271.833 247.5,271.5C 250.767,269.573 253.767,267.239 256.5,264.5 Z"/></g>
<g><path style="opacity:1" fill="#34a45f" d="M 216.5,268.5 C 217.391,269.11 218.391,269.443 219.5,269.5C 222.473,274.473 226.473,278.473 231.5,281.5C 232.5,281.833 233.167,282.5 233.5,283.5C 233.735,284.097 234.235,284.43 235,284.5C 236.643,283.685 238.143,282.685 239.5,281.5C 239.845,288.014 237.179,289.347 231.5,285.5C 228.017,280.511 223.517,276.844 218,274.5C 216.872,272.655 216.372,270.655 216.5,268.5 Z"/></g>
<g><path style="opacity:0.384" fill="#93d5ab" d="M 167.5,280.5 C 168.167,280.5 168.833,280.5 169.5,280.5C 173.167,284.833 177.167,288.833 181.5,292.5C 184.5,296.167 187.833,299.5 191.5,302.5C 191.5,303.167 191.833,303.5 192.5,303.5C 198.5,310.167 204.833,316.5 211.5,322.5C 214.5,325.833 217.5,329.167 220.5,332.5C 202.217,315.885 184.551,298.552 167.5,280.5 Z"/></g>
<g><path style="opacity:1" fill="#2fa15b" d="M 169.5,280.5 C 171.372,281.511 173.372,282.345 175.5,283C 176.337,284.011 176.67,285.178 176.5,286.5C 177.5,286.5 178.5,286.5 179.5,286.5C 179.704,288.685 180.37,290.685 181.5,292.5C 177.167,288.833 173.167,284.833 169.5,280.5 Z"/></g>
<g><path style="opacity:0.161" fill="#9ae8ba" d="M 239.5,280.5 C 239.5,280.833 239.5,281.167 239.5,281.5C 238.143,282.685 236.643,283.685 235,284.5C 234.235,284.43 233.735,284.097 233.5,283.5C 235.5,282.5 237.5,281.5 239.5,280.5 Z"/></g>
<g><path style="opacity:1" fill="#33a05e" d="M 181.5,292.5 C 182.552,292.351 183.552,292.517 184.5,293C 185.781,295.403 187.614,297.237 190,298.5C 190.791,299.745 191.291,301.078 191.5,302.5C 187.833,299.5 184.5,296.167 181.5,292.5 Z"/></g>
<g><path style="opacity:1" fill="#63b481" d="M 320.5,262.5 C 302.887,279.779 285.22,297.112 267.5,314.5C 267.5,312.833 267.5,311.167 267.5,309.5C 268.833,309.5 270.167,309.5 271.5,309.5C 271.5,308.5 271.5,307.5 271.5,306.5C 272.5,306.5 273.5,306.5 274.5,306.5C 274.5,305.5 274.5,304.5 274.5,303.5C 275.5,303.5 276.5,303.5 277.5,303.5C 277.281,302.325 277.614,301.325 278.5,300.5C 281.39,298.957 283.057,296.624 283.5,293.5C 285.995,292.801 288.328,291.801 290.5,290.5C 290.5,289.5 290.5,288.5 290.5,287.5C 291.5,287.5 292.5,287.5 293.5,287.5C 294.834,284.645 296.834,282.145 299.5,280C 299.167,279.667 298.833,279.333 298.5,279C 299.793,278.51 301.127,278.343 302.5,278.5C 302.167,275.5 303.5,274.167 306.5,274.5C 306.5,273.5 306.5,272.5 306.5,271.5C 310.085,269.587 313.085,266.92 315.5,263.5C 317.042,262.699 318.708,262.366 320.5,262.5 Z"/></g>
<g><path style="opacity:0.573" fill="#67b887" d="M 267.5,314.5 C 266.5,316.167 265.167,317.5 263.5,318.5C 263.167,315.5 264.5,314.167 267.5,314.5 Z"/></g>
<g><path style="opacity:1" fill="#2ca25a" d="M 192.5,303.5 C 196.27,304.264 199.603,305.931 202.5,308.5C 206.35,312.671 209.35,317.338 211.5,322.5C 204.833,316.5 198.5,310.167 192.5,303.5 Z"/></g>
<g><path style="opacity:0.867" fill="#61af7c" d="M 263.5,318.5 C 261.167,321.5 258.5,324.167 255.5,326.5C 255.286,324.856 255.62,323.356 256.5,322C 258.591,320.274 260.924,319.107 263.5,318.5 Z"/></g>
<g><path style="opacity:0.839" fill="#5cb37a" d="M 255.5,326.5 C 252.789,330.212 249.456,333.212 245.5,335.5C 245.67,334.178 245.337,333.011 244.5,332C 246.868,331.144 249.202,330.31 251.5,329.5C 251.5,328.5 251.5,327.5 251.5,326.5C 252.833,326.5 254.167,326.5 255.5,326.5 Z"/></g>
<g><path style="opacity:1" fill="#35a260" d="M 211.5,322.5 C 215.915,325.733 220.249,329.233 224.5,333C 229.295,335.033 234.295,335.866 239.5,335.5C 234.653,336.619 229.653,336.619 224.5,335.5C 222.596,335.262 221.262,334.262 220.5,332.5C 217.5,329.167 214.5,325.833 211.5,322.5 Z"/></g>
<g><path style="opacity:0.763" fill="#69b98b" d="M 224.5,335.5 C 229.653,336.619 234.653,336.619 239.5,335.5C 241.5,335.5 243.5,335.5 245.5,335.5C 238.472,339.439 231.472,339.439 224.5,335.5 Z"/></g>
</svg>
